<svg width="60" height="60" viewBox="0 0 60 60" fill="none" xmlns="http://www.w3.org/2000/svg">
<g clip-path="url(#clip0_7_6)">
<path d="M30 60C46.5685 60 60 46.5685 60 30C60 13.4315 46.5685 0 30 0C13.4315 0 0 13.4315 0 30C0 46.5685 13.4315 60 30 60Z" fill="white"/>
<path d="M30 59C46.0163 59 59 46.0163 59 30C59 13.9837 46.0163 1 30 1C13.9837 1 1 13.9837 1 30C1 46.0163 13.9837 59 30 59Z" stroke="#0058C6" stroke-width="2"/>
<mask id="mask0_7_6" style="mask-type:alpha" maskUnits="userSpaceOnUse" x="10" y="10" width="40" height="40">
<path d="M50 10H10V50H50V10Z" fill="white"/>
</mask>
<g mask="url(#mask0_7_6)">
<path d="M39.055 17.9466H36.244C34.4778 17.7169 32.8598 18.9624 32.63 20.7286C32.5997 20.9607 32.5946 21.1954 32.615 21.4286V25.5986H38.794L37.806 32.0296H32.615V47.5846H25.654V32.0216H20V25.5906H25.654V20.6906C25.195 16.3752 28.3207 12.5045 32.636 12.0446C33.1113 11.9937 33.5903 11.9864 34.067 12.0226C35.7378 12.0453 37.4047 12.1913 39.054 12.4596L39.055 17.9466Z" fill="#0058C6"/>
</g>
</g>
<defs>
<clipPath id="clip0_7_6">
<rect width="60" height="60" fill="white"/>
</clipPath>
</defs>
</svg>
